{
  "accessors": [
    {
      "bufferView": 2,
      "componentType": 5126,
      "count": 8566,
      "max": [
        146.06253051757813,
        143.4672088623047,
        433.93878173828125
      ],
      "min": [
        -94.11839294433594,
        -19.891218185424805,
        -174.06008911132813
      ],
      "type": "VEC3"
    },
    {
      "bufferView": 2,
      "byteOffset": 102792,
      "componentType": 5126,
      "count": 8566,
      "max": [
        0.9999186396598816,
        0.9997463822364807,
        0.9995448589324951
      ],
      "min": [
        -0.9999258518218994,
        -0.9997841119766235,
        -0.9995586276054382
      ],
      "type": "VEC3"
    },
    {
      "bufferView": 1,
      "componentType": 5126,
      "count": 8566,
      "max": [
        0.9958739876747131,
        0.9973970055580139
      ],
      "min": [
        0.0010999999940395355,
        0.0027020000852644444
      ],
      "type": "VEC2"
    },
    {
      "bufferView": 0,
      "componentType": 5125,
      "count": 33342,
      "type": "SCALAR"
    },
    {
      "bufferView": 2,
      "byteOffset": 205584,
      "componentType": 5126,
      "count": 142,
      "max": [
        139.80859375,
        129.57901000976563,
        420.3695983886719
      ],
      "min": [
        -83.14868927001953,
        -3.507375955581665,
        -107.06917572021484
      ],
      "type": "VEC3"
    },
    {
      "bufferView": 2,
      "byteOffset": 207288,
      "componentType": 5126,
      "count": 142,
      "max": [
        0.8774597644805908,
        0.44831472635269165,
        0.2102849930524826
      ],
      "min": [
        -0.9761683344841003,
        -0.9997942447662354,
        -0.17376790940761566
      ],
      "type": "VEC3"
    },
    {
      "bufferView": 1,
      "byteOffset": 68528,
      "componentType": 5126,
      "count": 142,
      "max": [
        0.9958999752998352,
        0.9886999726295471
      ],
      "min": [
        0.0027000000700354576,
        0.015599999576807022
      ],
      "type": "VEC2"
    },
    {
      "bufferView": 0,
      "byteOffset": 133368,
      "componentType": 5125,
      "count": 294,
      "type": "SCALAR"
    }
  ],
  "asset": {
    "extras": {
      "author": "lightwarrior (https://sketchfab.com/lightwarrior)",
      "license": "CC-BY-4.0 (http://creativecommons.org/licenses/by/4.0/)",
      "source": "https://sketchfab.com/3d-models/normandy-sr-2-74cd5342cf59465b90f3abffe45ce361",
      "title": "Normandy SR-2"
    },
    "generator": "Sketchfab-11.57.0",
    "version": "2.0"
  },
  "bufferViews": [
    {
      "buffer": 0,
      "byteLength": 134544,
      "name": "floatBufferViews",
      "target": 34963
    },
    {
      "buffer": 0,
      "byteLength": 69664,
      "byteOffset": 134544,
      "byteStride": 8,
      "name": "floatBufferViews",
      "target": 34962
    },
    {
      "buffer": 0,
      "byteLength": 208992,
      "byteOffset": 204208,
      "byteStride": 12,
      "name": "floatBufferViews",
      "target": 34962
    }
  ],
  "buffers": [
    {
      "byteLength": 413200,
      "uri": "scene.bin"
    }
  ],
  "images": [
    {
      "uri": "textures/0x07590D1F_baseColor.png"
    },
    {
      "uri": "textures/0x07590D1F_emissive.png"
    },
    {
      "uri": "textures/0x15D678C8_baseColor.png"
    }
  ],
  "materials": [
    {
      "doubleSided": true,
      "emissiveFactor": [
        1.0,
        1.0,
        1.0
      ],
      "emissiveTexture": {
        "index": 1
      },
      "name": "0x07590D1F",
      "pbrMetallicRoughness": {
        "baseColorTexture": {
          "index": 0
        },
        "roughnessFactor": 0.4
      }
    },
    {
      "doubleSided": true,
      "name": "0x15D678C8",
      "pbrMetallicRoughness": {
        "baseColorTexture": {
          "index": 2
        },
        "roughnessFactor": 0.4
      }
    }
  ],
  "meshes": [
    {
      "name": "Root_Leve1_0x07590D1F_0",
      "primitives": [
        {
          "attributes": {
            "NORMAL": 1,
            "POSITION": 0,
            "TEXCOORD_0": 2
          },
          "indices": 3,
          "material": 0,
          "mode": 4
        }
      ]
    },
    {
      "name": "Root_Leve2_0x15D678C8_0",
      "primitives": [
        {
          "attributes": {
            "NORMAL": 5,
            "POSITION": 4,
            "TEXCOORD_0": 6
          },
          "indices": 7,
          "material": 1,
          "mode": 4
        }
      ]
    }
  ],
  "nodes": [
    {
      "children": [
        1
      ],
      "matrix": [
        1.0,
        0.0,
        0.0,
        0.0,
        0.0,
        2.220446049250313e-16,
        -1.0,
        0.0,
        0.0,
        1.0,
        2.220446049250313e-16,
        0.0,
        0.0,
        0.0,
        0.0,
        1.0
      ],
      "name": "Sketchfab_model"
    },
    {
      "children": [
        2
      ],
      "matrix": [
        0.02539999969303608,
        0.0,
        0.0,
        0.0,
        0.0,
        0.0,
        0.02539999969303608,
        0.0,
        0.0,
        -0.02539999969303608,
        0.0,
        0.0,
        0.0,
        0.0,
        0.0,
        1.0
      ],
      "name": "Normandy SR-2.FBX"
    },
    {
      "children": [
        3,
        5
      ],
      "name": "RootNode"
    },
    {
      "children": [
        4
      ],
      "matrix": [
        1.0,
        0.0,
        0.0,
        0.0,
        0.0,
        -0.9999999999999991,
        4.3711387965113384e-08,
        0.0,
        0.0,
        -4.3711387965113384e-08,
        -0.9999999999999991,
        0.0,
        0.0,
        44.54335021972656,
        80.88286590576172,
        1.0
      ],
      "name": "Root_Leve1"
    },
    {
      "mesh": 0,
      "name": "Root_Leve1_0x07590D1F_0"
    },
    {
      "children": [
        6
      ],
      "matrix": [
        1.0,
        0.0,
        0.0,
        0.0,
        0.0,
        -0.9999999999999991,
        4.3711387965113384e-08,
        0.0,
        0.0,
        -4.3711387965113384e-08,
        -0.9999999999999991,
        0.0,
        0.0,
        44.54335021972656,
        80.88286590576172,
        1.0
      ],
      "name": "Root_Leve2"
    },
    {
      "mesh": 1,
      "name": "Root_Leve2_0x15D678C8_0"
    }
  ],
  "samplers": [
    {
      "magFilter": 9729,
      "minFilter": 9987,
      "wrapS": 10497,
      "wrapT": 10497
    }
  ],
  "scene": 0,
  "scenes": [
    {
      "name": "Sketchfab_Scene",
      "nodes": [
        0
      ]
    }
  ],
  "textures": [
    {
      "sampler": 0,
      "source": 0
    },
    {
      "sampler": 0,
      "source": 1
    },
    {
      "sampler": 0,
      "source": 2
    }
  ]
}
